<?xml version="1.0" encoding="UTF-8" standalone="no"?>
<!-- Created with Inkscape (http://www.inkscape.org/) -->

<svg
   version="1.1"
   id="svg1"
   width="355.365"
   height="210.509"
   viewBox="23.006 91.659 355.365 210.509"
   sodipodi:docname="logo scan.svg"
   inkscape:export-filename="logo yandex.png"
   inkscape:export-xdpi="96"
   inkscape:export-ydpi="96"
   inkscape:version="1.4.2 (f4327f4, 2025-05-13)"
   xmlns:inkscape="http://www.inkscape.org/namespaces/inkscape"
   xmlns:sodipodi="http://sodipodi.sourceforge.net/DTD/sodipodi-0.dtd"
   xmlns="http://www.w3.org/2000/svg"
   xmlns:svg="http://www.w3.org/2000/svg">
  <defs
     id="defs1" />
  <sodipodi:namedview
     id="namedview1"
     pagecolor="#ffffff"
     bordercolor="#000000"
     borderopacity="0.25"
     inkscape:showpageshadow="2"
     inkscape:pageopacity="0.0"
     inkscape:pagecheckerboard="0"
     inkscape:deskcolor="#d1d1d1"
     inkscape:zoom="0.75743495"
     inkscape:cx="12.542331"
     inkscape:cy="-11.222086"
     inkscape:window-width="1920"
     inkscape:window-height="1017"
     inkscape:window-x="-8"
     inkscape:window-y="-8"
     inkscape:window-maximized="1"
     inkscape:current-layer="g1"
     inkscape:clip-to-page="true"
     inkscape:export-bgcolor="#ffffffff"
     showguides="false" />
  <g
     inkscape:groupmode="layer"
     inkscape:label="Image"
     id="g1"
     transform="translate(-33.275435,-35.220254)">
    <path
       style="fill:#000080"
       d="m 334.64661,283.88774 v -43.5 h 22.33333 c 12.28334,0 22.61486,-0.28153 22.95895,-0.62562 0.34409,-0.34408 -10.71841,-8.89179 -24.58333,-18.9949 -13.86492,-10.1031 -29.70895,-21.67678 -35.20895,-25.71928 -38.33417,-28.1756 -56.21389,-41.02601 -57.58753,-41.389 -0.88785,-0.23461 -5.51556,2.58012 -10.5,6.38647 -4.90186,3.74328 -16.63598,12.66414 -26.07582,19.82414 -9.43984,7.16 -24.12296,18.30569 -32.62916,24.76819 -13.14796,9.98905 -16.00844,11.75 -19.08664,11.75 -1.99146,0 -3.62084,-0.37469 -3.62084,-0.83264 0,-0.45794 1.79856,-2.27799 3.99679,-4.04454 2.19824,-1.76655 12.88573,-10.89811 23.74999,-20.29236 10.86427,-9.39423 25.55925,-22.08669 32.65552,-28.20545 7.09628,-6.11876 16.54628,-14.27077 21,-18.11558 4.45373,-3.84481 8.39374,-7.4043 8.75558,-7.90998 0.36184,-0.50568 3.06184,0.81283 6,2.93003 8.98645,6.47552 81.78674,58.71421 109.09211,78.28031 l 25.75,18.45158 v 8.85298 8.85298 l -26.75,0.26634 -26.75,0.26633 -0.26247,36.25 -0.26248,36.25 h -6.48752 -6.48753 z M 112.64662,321.3935 c -19.258265,-2.45172 -35.717885,-15.69895 -43.656215,-35.13592 -2.2511,-5.51179 -2.61465,-7.91895 -2.69886,-17.86984 -0.0802,-9.47112 0.29512,-12.63082 2.12706,-17.90962 5.73401,-16.52272 18.59734,-29.34865 34.728015,-34.62702 8.36044,-2.73576 25.7187,-2.72144 33.5,0.0276 11.72333,4.14175 23.56103,13.56506 29.0572,23.13075 1.61854,2.81695 2.9428,5.57758 2.9428,6.13474 0,0.59646 -3.61026,1.07063 -8.77973,1.15314 -8.77974,0.14012 -8.77974,0.14012 -12.25,-3.48021 -8.80965,-9.19061 -18.15225,-12.98985 -29.87632,-12.14944 -22.617155,1.62125 -38.281175,21.29856 -34.272635,43.05368 2.97198,16.12951 13.58711,26.80068 30.167155,30.32641 5.70653,1.21348 7.40563,1.18852 13.74382,-0.20196 8.61303,-1.88954 17.5978,-7.44091 21.75729,-13.44306 2.78242,-4.01501 2.78242,-4.01501 11.64642,-4.01501 6.43089,0 8.86073,0.34312 8.85208,1.25 -0.0186,1.94709 -6.14929,12.2054 -9.56307,16.00154 -8.35036,9.28564 -21.38899,16.14858 -33.72491,17.75127 -3.96006,0.51449 -7.4251,0.88317 -7.7001,0.81929 -0.275,-0.0639 -2.975,-0.43123 -6,-0.81634 z m 61,-2.30568 c 0,-0.16495 1.14938,-8.15245 2.55417,-17.75 1.40479,-9.59754 2.96591,-20.82508 3.46914,-24.95008 1.86089,-15.25353 5.79684,-40.89998 6.43548,-41.93334 0.94799,-1.53388 14.04706,-1.36699 15.3438,0.19548 1.21956,1.46949 2.56541,5.08303 12.19311,32.73786 10.60676,30.46713 10.18229,29.43331 11.27963,27.47247 0.51881,-0.92705 1.98488,-4.90011 3.25795,-8.82901 1.27307,-3.9289 5.09443,-15.01846 8.49191,-24.64346 3.39748,-9.625 6.87845,-19.525 7.73548,-22 0.85702,-2.475 2.04897,-4.83061 2.64877,-5.23469 1.61877,-1.09054 14.37664,-0.92044 15.06968,0.20092 0.58724,0.95017 2.46231,13.43775 8.41375,56.03377 4.45578,31.89116 4.84979,28.44613 -3.29375,28.79913 -3.79548,0.16452 -7.26771,-0.0677 -7.71607,-0.51607 -0.7318,-0.7318 -2.73516,-13.88061 -6.06136,-39.78306 -1.50597,-11.72763 -2.10886,-12.73666 -4.07259,-6.8161 -0.87856,2.64885 -3.5124,10.2161 -5.85297,16.8161 -2.34056,6.6 -5.64369,16.05 -7.34029,21 l -3.08471,9 h -8.98422 c -8.98423,0 -8.98423,0 -11.05985,-6 -1.14159,-3.3 -4.44975,-12.75 -7.35147,-21 -2.90171,-8.25 -5.94809,-16.9125 -6.76972,-19.25 -1.69868,-4.83264 -3.30588,-5.56896 -3.30588,-1.51455 0,1.50449 -0.65414,7.46699 -1.45364,13.25 -0.79951,5.783 -2.1636,15.64283 -3.03133,21.91073 -0.86772,6.2679 -1.81514,11.7804 -2.10537,12.25 -0.46948,0.75963 -15.40965,1.29666 -15.40965,0.5539 z m 109.99999,-0.60081 c 0,-0.88583 3.97093,-12.556 5.98839,-17.59927 4.37946,-10.94785 4.3788,-10.44133 0.0251,-19.35054 -2.20742,-4.51715 -4.01349,-8.378 -4.01349,-8.57967 0,-0.20166 -1.97865,-4.57486 -4.397,-9.71822 -9.71987,-20.67228 -12.603,-27.1898 -12.603,-28.48999 0,-1.79512 11.93758,-1.88872 14.23059,-0.11158 0.88707,0.6875 2.81969,4.175 4.29472,7.75 1.47502,3.575 3.46474,8.3 4.4216,10.5 0.95686,2.2 3.04775,7.26104 4.64642,11.24674 1.59867,3.98571 3.41292,7.24821 4.03167,7.25 0.61875,0.002 1.40808,-1.41216 1.75408,-3.14212 0.34599,-1.72995 2.14821,-7.46745 4.00493,-12.75 1.85672,-5.28254 4.15013,-12.07962 5.09646,-15.10462 0.94634,-3.025 2.23787,-5.83061 2.87007,-6.23469 1.7475,-1.11693 13.44387,-0.90697 14.16152,0.25421 0.34656,0.56073 -1.16009,5.84823 -3.3481,11.75 -2.18801,5.90176 -5.34168,14.55548 -7.00816,19.23048 -4.90082,13.74835 -13.82334,38.94328 -16.4675,46.5 -2.44935,7 -2.44935,7 -10.06883,7.29206 -4.53256,0.17374 -7.61947,-0.10693 -7.61947,-0.69279 z"
       id="path1" />
  </g>
</svg>
